<svg width="25" height="25" viewBox="0 0 25 25" fill="none" xmlns="http://www.w3.org/2000/svg">
<path d="M12.8718 12.0894C11.7718 12.0894 10.8718 11.1894 10.8718 10.0894C10.8718 8.98936 11.7718 8.08936 12.8718 8.08936C13.9718 8.08936 14.8718 8.98936 14.8718 10.0894C14.8718 11.1894 13.9718 12.0894 12.8718 12.0894ZM18.8718 10.2894C18.8718 6.65936 16.2218 4.08936 12.8718 4.08936C9.52183 4.08936 6.87183 6.65936 6.87183 10.2894C6.87183 12.6294 8.82183 15.7294 12.8718 19.4294C16.9218 15.7294 18.8718 12.6294 18.8718 10.2894ZM12.8718 2.08936C17.0718 2.08936 20.8718 5.30936 20.8718 10.2894C20.8718 13.6094 18.2018 17.5394 12.8718 22.0894C7.54183 17.5394 4.87183 13.6094 4.87183 10.2894C4.87183 5.30936 8.67183 2.08936 12.8718 2.08936Z" fill="#00979D"/>
</svg>
