<svg width="150" height="109" viewBox="0 0 150 109" fill="none" xmlns="http://www.w3.org/2000/svg">
<path d="M83.4114 89.9624L101.117 89.9187L90.417 64.9491L95.2587 54.4085L103.794 66.2707L111.008 89.9187H128.56L120.09 59.7061C119.773 58.6684 119.27 57.6854 118.604 56.8334L100.177 33.2619L100.155 33.2728C100.089 33.0871 100.013 32.9015 99.9364 32.7267L81.0069 40.4819L73.6297 62.5024C73.1707 63.8677 73.2253 65.3532 73.7718 66.6858L83.4114 89.9624Z" fill="white"/>
<path d="M113.533 50.3343C111.751 51.7215 109.183 51.4047 107.795 49.6352C106.407 47.8548 106.724 45.288 108.494 43.9008" fill="#F08229"/>
<path d="M120.363 60.8749C120.298 60.8749 120.232 60.8749 120.167 60.8749C117.904 60.8749 116.079 62.699 116.079 64.96C116.079 67.221 117.904 69.0451 120.167 69.0451C120.975 69.0451 121.762 68.8048 122.44 68.357C122.254 67.9529 120.768 62.2621 120.363 60.8749Z" fill="#F08229"/>
<path d="M108.592 77.4231C108.1 77.4231 107.609 77.5105 107.15 77.6852C107.707 79.0834 109.554 85.2876 109.609 85.4623C111.795 84.9053 113.117 82.677 112.56 80.4924C112.101 78.6902 110.461 77.4231 108.592 77.4231Z" fill="#F08229"/>
<path d="M79.7502 48.7723C79.3459 48.4883 78.8868 48.2917 78.4169 48.1715C78.0781 49.6352 76.0671 55.7847 76.0125 55.9704C78.1327 56.7569 80.4825 55.6755 81.2694 53.5565C81.9142 51.7979 81.2913 49.8318 79.7502 48.7723Z" fill="#F08229"/>
<path d="M102.702 55.4135C100.592 55.4135 98.8327 57.0191 98.636 59.1163C98.8436 59.1272 99.0076 59.302 99.0294 59.5095C99.1497 60.3396 99.871 61.0278 100.385 61.6613C100.898 62.2948 101.434 62.8847 101.958 63.5073C104.177 63.9223 106.319 62.4696 106.735 60.2523C107.15 58.0349 105.696 55.8941 103.478 55.479C103.215 55.4353 102.964 55.4135 102.702 55.4135Z" fill="#F08229"/>
<path d="M94.8217 51.1971C97.0791 51.1971 98.9092 49.3682 98.9092 47.112C98.9092 44.8558 97.0791 43.0269 94.8217 43.0269C92.5642 43.0269 90.7341 44.8558 90.7341 47.112C90.7341 49.3682 92.5642 51.1971 94.8217 51.1971Z" fill="#F08229"/>
<path d="M79.3021 72.1691C81.5596 72.1691 83.3897 70.3401 83.3897 68.0839C83.3897 65.8278 81.5596 63.9988 79.3021 63.9988C77.0447 63.9988 75.2146 65.8278 75.2146 68.0839C75.2146 70.3401 77.0447 72.1691 79.3021 72.1691Z" fill="#F08229"/>
<path d="M103.357 37.4891C103.357 37.4782 103.357 37.4782 103.347 37.4673C103.106 37.216 100.56 33.6006 99.8601 32.8251C99.8601 32.8251 99.8492 32.8141 99.8492 32.8032C99.5323 32.9125 96.4721 34.1904 96.0131 34.4526C95.6415 36.6808 97.1497 38.778 99.3793 39.1494C100.909 39.4006 102.461 38.7671 103.368 37.5L103.357 37.4891Z" fill="#F08229"/>
<path d="M96.5376 79.3453C95.6086 81.3988 93.1933 82.3163 91.1386 81.3879C89.0839 80.4595 88.1658 78.0455 89.0948 75.992C89.9801 74.0368 92.2206 73.0975 94.2316 73.8402" fill="#F08229"/>
<path d="M124.943 77.707C124.79 77.6851 124.626 77.6742 124.473 77.6742C122.21 77.6742 120.385 79.4983 120.385 81.7593C120.385 84.0204 122.21 85.8445 124.473 85.8445C125.467 85.8445 126.429 85.484 127.183 84.8177C126.604 83.8456 125.096 78.3514 124.943 77.707Z" fill="#F08229"/>
<path d="M82.3077 5.85638C84.3077 5.85638 84.7231 8.52156 83.2695 9.62477C83.2257 9.65753 83.182 9.67938 83.1274 9.70123C83.029 10.3894 82.7886 11.0557 82.4279 11.6564C82.8214 11.7656 82.9416 12.2353 83.1492 12.705C83.3788 13.2075 82.9634 13.9393 83.6957 13.9284C84.3515 13.9174 95.9255 12.7705 96.7015 12.7815C97.2152 12.7924 98.1114 12.6504 98.6141 12.7159C96.5703 11.5253 94.2533 10.8918 91.8926 10.8918C91.3134 8.18295 89.4773 5.627 86.7012 3.68274C83.9908 1.78216 80.9415 0.678955 77.6081 0.678955C75.8594 0.678955 80.723 2.88537 82.3077 5.85638Z" fill="#00979D"/>
<path d="M72.362 26.9486C72.8647 25.5177 73.7719 24.2397 74.4495 22.8962C75.2364 21.3342 75.914 19.7395 76.8211 18.2431C77.0397 17.8826 77.2692 17.5331 77.5315 17.1945C77.7064 16.976 77.9141 16.7794 78.0452 16.5391C78.3184 16.0366 77.772 15.556 77.772 15.0208C77.7611 14.7368 77.8376 14.4419 78.0015 14.2016C77.6299 14.2235 77.2692 14.2344 76.8976 14.2125C76.3075 14.1907 73.5751 13.437 72.6571 11.0012C72.4931 11.1432 72.2855 11.2306 72.0778 11.2743C72.0123 11.2852 71.9467 11.2852 71.8811 11.2743L71.9576 26.9158C71.9576 27.1015 72.0997 27.2435 72.2855 27.2435H72.362C72.3292 27.1561 72.3292 27.0469 72.362 26.9486Z" fill="#00979D"/>
<path d="M146.211 108.237C146.211 106.544 145.02 105.08 143.358 104.731L134.79 102.961C133.533 102.699 132.517 101.793 132.112 100.58L128.571 89.9304H111.019V108.237L117.85 108.346V101.607L124.68 108.346L146.211 108.237Z" fill="white"/>
<path d="M124.68 108.673C124.593 108.673 124.516 108.64 124.451 108.575L118.177 102.382V108.334C118.177 108.422 118.145 108.509 118.079 108.564C118.013 108.618 117.926 108.662 117.839 108.662L111.008 108.553C110.833 108.553 110.68 108.4 110.68 108.225V89.9295C110.68 89.7438 110.822 89.6018 111.008 89.6018H128.56C128.702 89.6018 128.822 89.6892 128.866 89.8312L132.407 100.481C132.779 101.584 133.708 102.403 134.844 102.644L143.413 104.413C145.227 104.795 146.517 106.39 146.528 108.236C146.528 108.422 146.386 108.564 146.2 108.564L124.68 108.673ZM117.85 101.278C117.937 101.278 118.013 101.311 118.079 101.377L124.811 108.018L145.861 107.908C145.708 106.499 144.67 105.342 143.282 105.047L134.713 103.277C133.347 102.993 132.232 101.999 131.795 100.678L128.331 90.2572H111.347V107.908L117.522 108.007V101.606C117.522 101.42 117.675 101.278 117.85 101.278Z" fill="#262626"/>
<path d="M107.445 69.635C107.368 69.635 107.292 69.6131 107.237 69.5585L103.598 66.5438C103.456 66.4237 103.434 66.2271 103.554 66.0851C103.674 65.9431 103.871 65.9212 104.013 66.0414L107.653 69.0561C107.795 69.1762 107.816 69.3728 107.696 69.5148C107.642 69.5913 107.543 69.635 107.445 69.635Z" fill="#262626"/>
<path d="M129.183 92.3216C128.998 92.3216 128.855 92.1796 128.855 91.994C128.855 91.9066 128.888 91.8192 128.954 91.7646L139.588 81.1367C140.43 80.2956 141.785 80.2956 142.626 81.1367C143.468 81.9777 143.468 83.3321 142.626 84.1732C142.506 84.2934 142.364 84.4026 142.211 84.5009L129.347 92.2779C129.304 92.3107 129.249 92.3216 129.183 92.3216ZM141.107 81.1585C140.714 81.1585 140.331 81.3114 140.047 81.5954L131.325 90.3118L141.872 83.9329C142.583 83.5069 142.812 82.5894 142.386 81.8794C142.124 81.4316 141.632 81.1585 141.107 81.1585Z" fill="#262626"/>
<path d="M129.183 92.3217C128.998 92.3217 128.855 92.1797 128.855 91.994C128.855 91.863 128.932 91.7537 129.041 91.6991L142.637 85.2983C143.719 84.7959 144.998 85.2546 145.501 86.336C145.785 86.9368 145.774 87.6358 145.468 88.2257C145.173 88.8155 144.626 89.2306 143.971 89.3616L129.238 92.3217C129.227 92.3217 129.205 92.3217 129.183 92.3217ZM143.555 85.7462C143.337 85.7462 143.118 85.7899 142.921 85.8882L131.774 91.1421L143.85 88.7172C144.299 88.6298 144.681 88.3349 144.889 87.9307C145.26 87.1989 144.976 86.2923 144.233 85.9209C144.025 85.8008 143.796 85.7462 143.555 85.7462Z" fill="#262626"/>
<path d="M65.7717 108.27C65.7717 108.27 66.963 105.113 68.6243 104.764L77.1928 102.994C78.4496 102.732 79.4661 101.826 79.8705 100.613L83.4115 89.9635H100.964V108.27L94.2861 108.194V101.607L92.0456 108.237L65.7717 108.27Z" fill="white"/>
<path d="M100.964 108.597L94.2861 108.52C94.1113 108.52 93.9583 108.367 93.9583 108.193V103.605L92.3517 108.346C92.3079 108.477 92.1768 108.564 92.0456 108.564L65.7717 108.597C65.5859 108.597 65.4438 108.455 65.4438 108.269C65.4438 108.225 65.4548 108.193 65.4657 108.149C65.5204 108.018 66.7444 104.818 68.5587 104.435L77.1272 102.666C78.2639 102.425 79.1928 101.606 79.5644 100.503L83.1055 89.8533C83.1492 89.7222 83.2804 89.6239 83.4115 89.6239H100.964C101.15 89.6239 101.292 89.7659 101.292 89.9516V108.269C101.292 108.455 101.15 108.597 100.964 108.597ZM83.652 90.2902L80.1874 100.711C79.7393 102.032 78.6355 103.026 77.2693 103.31L68.6898 105.091C67.6516 105.309 66.7116 106.958 66.2635 107.952L91.8052 107.92L93.9692 101.508C94.0238 101.333 94.2096 101.246 94.3845 101.3C94.5156 101.344 94.6031 101.475 94.6031 101.606V107.865L100.625 107.931V90.2902H83.652Z" fill="#262626"/>
<path d="M113.686 50.5317L119.478 18.2875C120.057 15.0215 117.872 11.9085 114.593 11.3296C114.024 11.2313 113.445 11.2095 112.877 11.275L83.8489 14.0494L78.7121 16.234C78.5154 16.3214 78.4935 16.234 78.2422 16.66L69.9687 29.3414L63.7391 28.2491L52.8098 35.5674L69.5753 42.0337C69.6518 42.0665 69.7283 42.0993 69.7939 42.132C72.6901 43.5083 76.1656 42.285 77.5427 39.3904C77.6411 39.1829 77.7285 38.9753 77.805 38.7569L80.4608 32.0721C80.7231 33.077 80.8542 32.8476 80.6685 33.8198C80.0127 35.9825 80.0783 38.2981 80.8542 40.4172L99.9804 32.8476C99.117 30.7614 97.5978 29.0028 95.6524 27.8559C94.8546 27.2661 93.7835 25.5402 93.7835 25.5402L106.243 24.1094L103.817 37.9267L113.686 50.5317Z" fill="white"/>
<path d="M113.685 50.8585C113.587 50.8585 113.489 50.8149 113.423 50.7275L103.554 38.1116C103.499 38.0351 103.478 37.9477 103.488 37.8494L105.849 24.4908L94.3516 25.8125C94.7123 26.3368 95.3462 27.2106 95.838 27.582C97.8381 28.7726 99.4009 30.5748 100.286 32.7157C100.352 32.8796 100.275 33.0762 100.111 33.1417C100.111 33.1417 100.111 33.1417 100.1 33.1417L80.9742 40.7112C80.8103 40.7768 80.6136 40.7003 80.548 40.5255V40.5146C79.7502 38.33 79.6737 35.9489 80.3513 33.7206C80.4278 33.3383 80.4496 33.1854 80.4169 33.0325L78.0999 38.8434C77.0069 42.0547 73.5096 43.7587 70.3073 42.6664C70.0778 42.59 69.8592 42.5026 69.6516 42.3933C69.5751 42.3606 69.5095 42.3278 69.4548 42.306L52.6894 35.8724C52.5254 35.8069 52.438 35.6212 52.5036 35.4464C52.5254 35.3809 52.5692 35.3263 52.6238 35.2935L63.553 27.9752C63.6186 27.9315 63.7061 27.9097 63.7935 27.9206L69.8155 28.9801L77.9687 16.4844C78.1764 16.1348 78.2857 16.0256 78.5152 15.9601C78.537 15.9491 78.5589 15.9491 78.5917 15.9382L83.7284 13.7537C83.7612 13.7427 83.794 13.7318 83.8268 13.7318L112.855 10.9574C116.33 10.5642 119.467 13.0764 119.86 16.5499C119.926 17.1507 119.904 17.7514 119.806 18.3522L114.013 50.5964C113.991 50.7275 113.893 50.8258 113.773 50.8585C113.74 50.8585 113.718 50.8585 113.685 50.8585ZM104.166 37.8385L113.5 49.7553L119.161 18.232C119.707 15.1409 117.631 12.2026 114.549 11.6565C114.013 11.5582 113.467 11.5472 112.931 11.6019L83.947 14.3763L78.8649 16.539C78.8212 16.5608 78.7665 16.5717 78.7228 16.5936C78.7119 16.5936 78.7119 16.5936 78.701 16.6045C78.6463 16.681 78.5917 16.7574 78.548 16.8339C78.548 16.8339 78.548 16.8448 78.537 16.8448L70.2636 29.5262C70.1871 29.6355 70.0559 29.6901 69.9357 29.6682L63.8372 28.5978L53.5419 35.4901L69.7171 41.7271C69.7936 41.7598 69.8701 41.7926 69.9576 41.8363C72.6899 43.1361 75.9687 41.9783 77.2692 39.2476C77.3567 39.051 77.4441 38.8543 77.5097 38.6577C77.5097 38.6577 77.5097 38.6468 77.5206 38.6468L80.1764 31.962C80.242 31.7982 80.4387 31.7108 80.6027 31.7763C80.701 31.82 80.7666 31.8965 80.7994 31.9948C80.8759 32.2679 80.9305 32.4426 80.9852 32.5846C81.1382 33.0215 81.16 33.1745 81.018 33.8954C81.018 33.9063 81.018 33.9172 81.007 33.9281C80.4059 35.9161 80.4278 38.0351 81.0835 40.0012L99.5758 32.6829C98.7233 30.7933 97.3025 29.2095 95.5211 28.15C95.5101 28.139 95.4992 28.139 95.4883 28.1281C94.6467 27.5055 93.5757 25.8016 93.5319 25.7251C93.4336 25.5722 93.4882 25.3646 93.6412 25.2773C93.6849 25.2554 93.7287 25.2336 93.7724 25.2336L106.232 23.8027C106.407 23.7808 106.571 23.9119 106.592 24.0867C106.592 24.1194 106.592 24.1522 106.592 24.185L104.166 37.8385Z" fill="#262626"/>
<path d="M82.6902 92.6275C82.6683 92.6275 82.6464 92.6275 82.6136 92.6165L67.9466 89.3288C66.7881 89.0666 66.0559 87.9197 66.3072 86.7619C66.5695 85.6041 67.7171 84.8723 68.8756 85.1235C69.0505 85.1562 69.2144 85.2218 69.3674 85.2982L82.8322 91.9939C82.9962 92.0704 83.0617 92.267 82.9743 92.4309C82.9306 92.5619 82.8104 92.6275 82.6902 92.6275ZM68.4166 85.7352C67.5859 85.7352 66.9193 86.4015 66.9193 87.2207C66.9193 87.9197 67.4111 88.5314 68.0887 88.6843L80.1218 91.3823L69.0833 85.8881C68.8756 85.7898 68.6461 85.7352 68.4166 85.7352Z" fill="#262626"/>
<path d="M67.5421 94.5172C66.3508 94.5063 65.3891 93.5342 65.4 92.3436C65.4 92.2671 65.4 92.1907 65.4109 92.1033C65.553 90.9236 66.6131 90.0826 67.7935 90.2137L82.7228 91.9613C82.8977 91.9831 83.0289 92.147 83.007 92.3217C82.9851 92.4747 82.8758 92.5948 82.7228 92.6057L67.8154 94.4735C67.7279 94.5063 67.6405 94.5172 67.5421 94.5172ZM67.5531 90.869C66.7224 90.869 66.0557 91.5353 66.0557 92.3545C66.0557 92.7587 66.2197 93.141 66.5038 93.4249C66.8317 93.7526 67.2798 93.9056 67.7389 93.84L79.9687 92.2999L67.717 90.869C67.6733 90.869 67.6186 90.869 67.5531 90.869Z" fill="#262626"/>
<path d="M59.3016 24.8959C58.635 28.1727 57.7934 31.0345 56.5147 31.3185C55.378 31.5698 55.225 29.8658 55.6403 25.584C54.4818 29.6364 53.8152 30.685 52.6348 30.8707C51.4544 31.0564 51.2905 28.708 52.2086 25.584C51.2905 28.0307 51.0938 28.4895 50.3287 28.7298C49.4107 29.0138 49.2904 27.2771 49.6183 25.595L49.6292 25.4639C49.8588 23.6398 50.9735 23.2247 51.8807 23.2356C52.4271 23.2465 52.9736 23.1373 53.4763 22.9189C54.0119 22.6676 54.6239 22.613 55.2032 22.7441C55.8371 22.9079 56.4928 22.9079 57.1267 22.7441C58.0229 22.5038 59.0503 22.4601 59.7497 23.2356C60.6459 24.2187 60.3509 25.8462 60.3509 25.8462L62.4165 25.9882L60.5913 27.0368L65.586 24.175C66.3182 23.749 67.127 24.6119 66.6461 25.3219L64.6788 28.2492C63.6733 28.981 61.247 31.3841 59.1377 32.7822C58.6896 34.6391 56.7333 35.9935 54.4491 35.8843C51.9025 35.775 49.9243 33.9072 50.0118 31.7227C50.0446 30.8707 50.6785 29.0903 51.1047 28.14" fill="white"/>
<path d="M54.6785 36.222C54.5911 36.222 54.5146 36.222 54.4272 36.2111C51.7058 36.0909 49.5746 34.0702 49.6839 31.7109C49.7167 31.0664 50.0446 29.9741 50.3834 29.0457C50.1101 29.1221 49.826 29.0566 49.6074 28.8709C49.0063 28.3357 49.05 26.7956 49.2904 25.5395L49.3014 25.4302V25.4193C49.5855 23.1255 51.2031 22.8961 51.8807 22.907C52.3834 22.918 52.8752 22.8197 53.3343 22.6231C53.9463 22.3391 54.6239 22.2735 55.2797 22.4264C55.8589 22.5684 56.4709 22.5684 57.0502 22.4264C58.3398 22.0769 59.3344 22.2735 60.0011 23.0163C60.7333 23.8136 60.7661 24.9715 60.7224 25.5504L62.3509 25.6596L65.422 23.8901C65.9575 23.5843 66.657 23.77 66.963 24.3052C67.1816 24.6765 67.1597 25.1462 66.9193 25.4958L64.952 28.4231C64.9302 28.4558 64.9083 28.4777 64.8755 28.4995C64.5149 28.7617 63.9575 29.2532 63.3017 29.8321C62.1651 30.837 60.7552 32.0822 59.4328 32.9779C58.8863 34.9003 56.9409 36.222 54.6785 36.222ZM51.3233 28.4777C50.9189 29.428 50.3724 31.0118 50.3396 31.7436C50.2522 33.7425 52.0992 35.4574 54.46 35.5666C56.5693 35.654 58.3945 34.4634 58.8098 32.7158C58.8317 32.6393 58.8754 32.5628 58.9519 32.5191C60.2634 31.6453 61.706 30.3783 62.8645 29.3624C63.4984 28.8054 64.0558 28.3139 64.4383 28.0299L66.3837 25.1462C66.5258 24.9278 66.4712 24.6329 66.2526 24.4909C66.0996 24.3926 65.9138 24.3816 65.7499 24.469L62.5913 26.2822L60.7661 27.3308C60.6022 27.4182 60.4055 27.3636 60.318 27.1997C60.2306 27.0468 60.2852 26.8502 60.4382 26.7628L61.3344 26.2494L60.3399 26.1839C60.1541 26.173 60.0229 26.0091 60.0339 25.8344C60.0339 25.8234 60.0339 25.8125 60.0339 25.8016C60.0339 25.7907 60.2852 24.3161 59.5093 23.4641C59.0174 22.918 58.2633 22.7869 57.2141 23.0709C56.5256 23.2457 55.8152 23.2457 55.1266 23.0709C54.6239 22.9507 54.0884 23.0054 53.6075 23.2238C53.0501 23.4641 52.449 23.5843 51.8479 23.5733C51.0828 23.5733 50.1538 23.9119 49.9571 25.5067L49.9462 25.6268C49.9462 25.6378 49.9462 25.6487 49.9462 25.6596C49.673 27.0686 49.7823 28.1609 50.0555 28.4012C50.0773 28.4231 50.1211 28.4558 50.2413 28.4231C50.4708 28.3575 50.6784 28.2155 50.8205 28.0189C50.8315 27.9862 50.8533 27.9643 50.8752 27.9425C51.1265 27.5493 51.3998 26.8502 51.9135 25.4848C51.979 25.3101 52.1648 25.2336 52.3397 25.2882C52.5036 25.3538 52.5911 25.5176 52.5364 25.6924C51.7714 28.3029 51.8588 29.985 52.2632 30.4547C52.3397 30.553 52.4708 30.5967 52.5911 30.564C53.531 30.411 54.1539 29.6464 55.3343 25.5067C55.3889 25.3319 55.5638 25.2336 55.7387 25.2773C55.8917 25.321 55.9901 25.463 55.9791 25.6268C55.7605 27.8551 55.5857 30.4766 56.1321 30.9572C56.1868 31.0009 56.2633 31.0446 56.46 31.0118C57.8043 30.7169 58.7005 26.2931 58.9956 24.8404C59.0284 24.6656 59.2032 24.5455 59.3781 24.5892C59.553 24.6219 59.6732 24.7967 59.6295 24.9715C58.7333 29.3734 57.8262 31.3722 56.5912 31.6453C56.2742 31.7327 55.9354 31.6562 55.695 31.4487C55.2469 31.0446 55.0611 30.1598 55.1266 28.3357C54.3725 30.3455 53.7168 31.0336 52.6894 31.1975C52.3397 31.263 51.99 31.1319 51.7714 30.8698C51.3451 30.3892 51.2468 29.5044 51.3233 28.4777Z" fill="#262626"/>
<path d="M106.21 24.611C106.079 24.611 105.959 24.5236 105.904 24.4034L104.68 21.3123C104.614 21.1484 104.691 20.9518 104.855 20.8863C105.019 20.8208 105.215 20.8972 105.281 21.0611C105.281 21.0611 105.281 21.0611 105.281 21.072L106.057 23.0272L106.374 20.8754C106.396 20.7006 106.56 20.5695 106.746 20.5914C106.92 20.6132 107.052 20.7771 107.03 20.9627V20.9737L106.538 24.3379C106.516 24.4799 106.396 24.6001 106.254 24.611C106.232 24.611 106.221 24.611 106.21 24.611Z" fill="#262626"/>
<path d="M115.456 52.8028C115.74 52.8465 116.035 52.8792 116.352 52.9229C119.697 53.3489 129.041 52.0928 128.593 49.8427C128.32 48.4773 125.948 49.2856 121.369 49.6352C125.369 48.6193 127.642 45.4189 126.822 44.2393C126.003 43.0596 123.303 45.8995 120.221 46.6969C121.926 45.2879 123.052 42.3278 122.254 41.5523C121.095 40.4381 119.587 42.5025 118.44 43.7696C115.915 46.5768 114.112 42.8848 111.893 42.011C110.625 41.5086 108.909 41.9782 107.871 43.1142" fill="white"/>
<path d="M117.893 53.3271C117.369 53.3271 116.833 53.3053 116.309 53.2398C115.992 53.1961 115.697 53.1633 115.412 53.1196C115.237 53.0978 115.106 52.9339 115.128 52.7482C115.15 52.5626 115.314 52.4424 115.5 52.4642C115.784 52.5079 116.079 52.5407 116.396 52.5844C119.412 52.9667 126.593 52.0164 128.058 50.4326C128.32 50.1486 128.276 49.952 128.265 49.8864C128.134 49.2202 127.063 49.3185 124.659 49.6025C123.719 49.7117 122.648 49.8428 121.38 49.9411C121.194 49.952 121.041 49.8209 121.03 49.6352C121.019 49.4714 121.117 49.3294 121.281 49.2966C124.036 48.5976 126.003 46.8062 126.527 45.3972C126.691 44.9712 126.691 44.6216 126.538 44.4032C126.243 43.9881 125.238 44.5779 124.057 45.2552C122.997 45.8668 121.675 46.6314 120.287 46.9919C120.112 47.0356 119.937 46.9373 119.882 46.7516C119.85 46.6314 119.893 46.5004 119.992 46.413C121.238 45.3862 122.123 43.5184 122.167 42.4152C122.178 42.0985 122.123 41.8691 122.003 41.7489C121.861 41.596 121.675 41.5195 121.467 41.5195C120.757 41.5523 119.839 42.6009 119.096 43.4529C118.943 43.6277 118.8 43.7915 118.658 43.9444C116.702 46.1181 115.063 44.7636 113.631 43.5512C113.019 43.0378 112.385 42.5135 111.751 42.2623C110.614 41.8035 109.041 42.2405 108.09 43.2781C107.97 43.4092 107.762 43.4201 107.631 43.3C107.5 43.1798 107.489 42.9723 107.609 42.8412C108.746 41.596 110.593 41.1045 111.992 41.6615C112.724 41.9455 113.39 42.5135 114.046 43.0487C115.653 44.3923 116.713 45.1241 118.177 43.4966C118.32 43.3437 118.462 43.1798 118.604 43.0051C119.467 42.0111 120.451 40.886 121.445 40.8532C121.828 40.8423 122.199 40.9843 122.462 41.2574C122.724 41.5086 122.844 41.9018 122.822 42.4152C122.79 43.3437 122.243 44.7527 121.369 45.8887C122.178 45.5282 122.964 45.1132 123.73 44.6544C125.249 43.7806 126.44 43.0815 127.074 43.999C127.358 44.4032 127.369 44.9493 127.129 45.5938C126.702 46.7297 125.467 48.0733 123.686 49.0235C123.992 48.9908 124.287 48.958 124.56 48.9252C125.795 48.7832 126.757 48.6631 127.456 48.7177C127.762 48.7395 128.702 48.8051 128.888 49.7335C128.943 50.0066 128.921 50.4217 128.517 50.8477C127.085 52.4642 121.347 53.3271 117.893 53.3271Z" fill="#262626"/>
<path d="M83.4115 90.29C83.2804 90.29 83.1601 90.2135 83.1055 90.0824L73.4659 66.8059C72.8867 65.3968 72.832 63.8348 73.3129 62.393L80.6901 40.3726C80.7229 40.2852 80.7885 40.2087 80.8759 40.176L99.8054 32.4207C99.9693 32.3552 100.155 32.4317 100.232 32.5955C100.297 32.7594 100.363 32.9013 100.417 33.0433C100.417 33.0543 100.428 33.0543 100.428 33.0652L118.855 56.6367C119.554 57.5214 120.068 58.5373 120.396 59.6186L128.866 89.8421C128.91 90.0169 128.812 90.2026 128.637 90.2463C128.604 90.2572 128.582 90.2572 128.549 90.2572H111.008C110.866 90.2572 110.735 90.1589 110.691 90.0278L103.489 66.4345L95.3134 55.0747L90.7669 64.9708L101.401 89.8094C101.478 89.9732 101.39 90.1698 101.226 90.2354C101.182 90.2572 101.139 90.2572 101.095 90.2572L83.4115 90.29ZM81.2694 40.733L73.9468 62.6115C73.5096 63.9004 73.5643 65.3094 74.0889 66.5656L83.641 89.6346L100.625 89.5909L90.1221 65.08C90.0893 64.9927 90.0893 64.8944 90.1221 64.8179L94.9637 54.2774C95.0402 54.1135 95.2369 54.0371 95.4009 54.1135C95.4555 54.1354 95.4992 54.179 95.532 54.2227L104.068 66.0849C104.09 66.1177 104.101 66.1505 104.111 66.1833L111.248 89.5909H128.123L119.773 59.7934C119.467 58.7885 118.986 57.86 118.341 57.0299L99.9911 33.5567C99.9256 33.513 99.8709 33.4584 99.8491 33.382C99.8272 33.3055 99.7944 33.229 99.7616 33.1526L81.2694 40.733Z" fill="#262626"/>
<path d="M72.515 10.9256L72.2637 5.52969L74.8867 3.45435L79.7393 7.96548C79.7393 6.76397 80.712 5.79183 81.9142 5.79183C83.1164 5.79183 84.0891 6.76397 84.0891 7.96548C84.0672 9.24345 82.9743 9.89883 82.9743 9.89883C82.9197 10.2811 82.8104 10.6416 82.6683 11.002C82.6246 11.1113 82.5809 11.2096 82.5262 11.3079L83.4334 13.7L83.7284 14.5083C83.8705 14.825 83.9361 15.1746 83.9361 15.5241C83.9361 17.0861 82.6683 18.3531 81.1054 18.3531C79.9469 18.3531 78.8977 17.6431 78.4715 16.5508L78.3294 16.1576L77.6409 14.3881C77.6299 14.3881 77.619 14.3881 77.6081 14.3881C75.3566 14.3881 73.3457 13.0228 72.515 10.9256Z" fill="white"/>
<path d="M81.1054 18.6799C79.8049 18.6799 78.6354 17.8825 78.1655 16.67L78.0234 16.2659L77.4114 14.7149C75.0943 14.6493 73.0506 13.2075 72.209 11.0557C72.1981 11.0229 72.1872 10.9902 72.1872 10.9465L71.9358 5.5506C71.9358 5.44137 71.9795 5.34306 72.056 5.27752L74.679 3.20219C74.8102 3.10388 74.9851 3.10388 75.1053 3.22403L79.4988 7.29825C79.8704 5.96566 81.2585 5.17922 82.5918 5.56152C83.0181 5.68167 83.4006 5.91105 83.7066 6.21689C84.1656 6.68657 84.4279 7.3201 84.417 7.97547C84.3952 9.15513 83.5973 9.86512 83.2694 10.1054C83.2039 10.455 83.1055 10.8045 82.9634 11.1431C82.9416 11.2086 82.9088 11.2742 82.876 11.3397L83.7285 13.6007L84.0236 14.409C84.1766 14.7695 84.2531 15.1518 84.2531 15.545C84.264 17.2599 82.8541 18.6799 81.1054 18.6799ZM77.6409 14.0595C77.772 14.0595 77.9032 14.1469 77.9469 14.267L78.6354 16.0365L78.7775 16.4407C79.2803 17.7296 80.7338 18.3522 82.0235 17.8497C82.9743 17.4783 83.6082 16.5499 83.6082 15.5232C83.6082 15.2173 83.5536 14.9224 83.4224 14.6384C83.4224 14.6275 83.4224 14.6275 83.4115 14.6166L83.1164 13.8083L82.2093 11.4271C82.1765 11.3397 82.1765 11.2523 82.2202 11.1649C82.2749 11.0557 82.3186 10.9683 82.3514 10.87C82.4935 10.5423 82.5809 10.1928 82.6355 9.84327C82.6465 9.74497 82.712 9.66851 82.7885 9.61389C82.8213 9.59205 83.7285 9.02406 83.7394 7.95362C83.7503 7.47302 83.5645 7.01426 83.2257 6.66473C82.5153 5.9329 81.335 5.92197 80.6027 6.63196C80.253 6.98149 80.0453 7.45117 80.0453 7.95362C80.0453 8.13931 79.9032 8.28131 79.7174 8.28131C79.63 8.28131 79.5535 8.24854 79.4988 8.19392L74.8539 3.8794L72.5806 5.67075L72.8211 10.8373C73.608 12.7815 75.4987 14.0486 77.5862 14.0376H77.6409V14.0595Z" fill="#262626"/>
<path d="M72.8539 10.6963C71.8703 11.5046 70.4167 11.3626 69.6079 10.3795C68.7992 9.39647 68.9412 7.94373 69.9249 7.13544C70.9085 6.32715 72.3621 6.46915 73.1709 7.45221C73.4113 7.74712 73.5752 8.08573 73.6517 8.45711" fill="white"/>
<path d="M71.3893 11.5474C69.9357 11.5474 68.7554 10.3677 68.7554 8.915C68.7554 7.46226 69.9357 6.28259 71.3893 6.28259C72.6352 6.28259 73.7172 7.15642 73.9686 8.37978C74.0123 8.55454 73.8921 8.72931 73.7172 8.773C73.5424 8.81669 73.3675 8.69654 73.3238 8.52178V8.51085C73.1052 7.44041 72.056 6.75228 70.9849 6.97073C69.9139 7.18919 69.2253 8.23778 69.4439 9.30822C69.6625 10.3787 70.7117 11.0668 71.7828 10.8483C72.0997 10.7828 72.3948 10.6408 72.6462 10.4333C72.7883 10.3131 72.9959 10.335 73.1052 10.477C73.2145 10.619 73.2036 10.8265 73.0615 10.9357C72.5915 11.3399 72.0013 11.5474 71.3893 11.5474Z" fill="#262626"/>
<path d="M77.6082 14.7149C77.4224 14.7149 77.2803 14.5729 77.2803 14.3872C77.2803 14.2015 77.4224 14.0595 77.6082 14.0595C78.3951 14.0486 79.171 13.8738 79.8814 13.5461C80.0454 13.4697 80.2421 13.5461 80.3186 13.71C80.3951 13.8738 80.3186 14.0704 80.1547 14.1469C79.3568 14.5074 78.4825 14.704 77.6082 14.7149Z" fill="#262626"/>
<path d="M75.2254 13.0328H74.0232C73.8374 13.0328 73.6953 12.8908 73.6953 12.7051C73.6953 12.5194 73.8374 12.3774 74.0232 12.3774H75.2254C75.4112 12.3774 75.5533 12.5194 75.5533 12.7051C75.5533 12.8908 75.4112 13.0328 75.2254 13.0328Z" fill="#262626"/>
<path d="M74.0669 11.6238C74.0559 11.6238 74.045 11.6238 74.045 11.6238L72.657 11.5145C72.4712 11.5036 72.34 11.3398 72.351 11.165C72.351 11.1322 72.3619 11.1104 72.3728 11.0776L73.5423 7.80077C73.6078 7.626 73.7936 7.53862 73.9576 7.60416C74.1324 7.66969 74.2199 7.85538 74.1543 8.01922L73.127 10.8919L74.0887 10.9684C74.2745 10.9793 74.4057 11.1432 74.3948 11.3179C74.3838 11.4927 74.2417 11.6238 74.0669 11.6238Z" fill="#262626"/>
<path d="M81.0398 8.72918C80.854 8.72918 80.7119 8.58719 80.7119 8.4015C80.7119 8.33596 80.7338 8.27042 80.7666 8.21581L81.7939 6.73031C81.8923 6.57739 82.0999 6.54462 82.2529 6.64292C82.4059 6.74123 82.4387 6.94876 82.3404 7.10168C82.3404 7.10168 82.3404 7.1126 82.3294 7.1126L81.6955 8.0192L82.7338 7.92089C82.9196 7.90997 83.0726 8.04105 83.0945 8.21581C83.1054 8.4015 82.9743 8.55442 82.7994 8.57626L81.0617 8.72918C81.0617 8.72918 81.0507 8.72918 81.0398 8.72918Z" fill="#262626"/>
<path d="M71.3892 10.5424C71.6126 10.5424 71.7936 10.3615 71.7936 10.1383C71.7936 9.91507 71.6126 9.73413 71.3892 9.73413C71.1659 9.73413 70.9849 9.91507 70.9849 10.1383C70.9849 10.3615 71.1659 10.5424 71.3892 10.5424Z" fill="#262626"/>
<path d="M79.5864 7.5823C80.0126 6.11864 82.0127 5.00451 83.3242 6.10772C83.357 6.12956 83.3788 6.16233 83.4007 6.18418C83.4116 6.15141 83.4116 6.11864 83.4007 6.08587L83.357 5.78003V5.76911C83.357 5.75818 83.357 5.73634 83.357 5.72542C82.9417 2.54687 80.0236 0.307683 76.8432 0.722751C74.2311 1.06136 72.1764 3.12578 71.8376 5.73634C71.8157 5.9111 71.9469 6.07495 72.1217 6.09679C72.2092 6.10771 72.2966 6.08587 72.3622 6.03125L74.2639 4.53482L76.4169 6.42448C77.2913 7.17815 78.3951 7.62599 79.5427 7.66968C79.5755 7.64784 79.5755 7.61507 79.5864 7.5823Z" fill="#00979D"/>
<path d="M76.1654 11.2206C77.4391 11.2206 78.4715 10.1888 78.4715 8.91593C78.4715 7.64306 77.4391 6.61121 76.1654 6.61121C74.8918 6.61121 73.8594 7.64306 73.8594 8.91593C73.8594 10.1888 74.8918 11.2206 76.1654 11.2206Z" fill="white"/>
<path d="M76.1654 11.5474C74.7119 11.5474 73.5315 10.3677 73.5315 8.915C73.5315 7.46226 74.7119 6.28259 76.1654 6.28259C77.619 6.28259 78.7994 7.46226 78.7994 8.915C78.7994 10.3677 77.619 11.5474 76.1654 11.5474ZM76.1654 6.93796C75.0725 6.93796 74.1872 7.82271 74.1872 8.915C74.1872 10.0073 75.0725 10.892 76.1654 10.892C77.2584 10.892 78.1436 10.0073 78.1436 8.915C78.1436 7.82271 77.2584 6.93796 76.1654 6.93796Z" fill="#262626"/>
<path d="M76.1654 10.5424C76.3887 10.5424 76.5698 10.3615 76.5698 10.1383C76.5698 9.91507 76.3887 9.73413 76.1654 9.73413C75.942 9.73413 75.761 9.91507 75.761 10.1383C75.761 10.3615 75.942 10.5424 76.1654 10.5424Z" fill="#262626"/>
<path d="M81.9688 10.4659C81.783 10.4659 81.6409 10.3239 81.6409 10.1382C81.6409 9.95254 81.783 9.81054 81.9688 9.81054C82.9962 9.81054 83.8268 8.98041 83.8268 7.95366C83.8268 6.92691 82.9962 6.09678 81.9688 6.09678C80.9415 6.09678 80.1108 6.92691 80.1108 7.95366C80.1108 8.13935 79.9688 8.28135 79.783 8.28135C79.5972 8.28135 79.4551 8.13935 79.4551 7.95366C79.4551 6.56646 80.5808 5.44141 81.9688 5.44141C83.3568 5.44141 84.4826 6.56646 84.4826 7.95366C84.4826 9.34086 83.3459 10.4659 81.9688 10.4659Z" fill="#262626"/>
<path d="M39.5856 69.5097C41.9106 69.5097 43.7954 67.6316 43.7954 65.3148C43.7954 62.998 41.9106 61.1199 39.5856 61.1199C37.2605 61.1199 35.3757 62.998 35.3757 65.3148C35.3757 67.6316 37.2605 69.5097 39.5856 69.5097Z" fill="white"/>
<path d="M39.5856 69.8365C38.6879 69.8365 37.8104 69.5713 37.064 69.0743C36.3176 68.5774 35.7359 67.871 35.3924 67.0446C35.0488 66.2182 34.959 65.3089 35.1341 64.4316C35.3092 63.5543 35.7415 62.7484 36.3762 62.1159C37.011 61.4834 37.8197 61.0527 38.7001 60.8782C39.5806 60.7037 40.4931 60.7932 41.3225 61.1355C42.1518 61.4778 42.8607 62.0575 43.3594 62.8012C43.8581 63.545 44.1243 64.4194 44.1243 65.3139C44.1229 66.5129 43.6443 67.6625 42.7934 68.5104C41.9426 69.3582 40.7889 69.8351 39.5856 69.8365ZM39.5856 61.4467C38.818 61.4467 38.0677 61.6735 37.4295 62.0984C36.7912 62.5234 36.2938 63.1273 36.0001 63.834C35.7063 64.5406 35.6295 65.3182 35.7792 66.0683C35.929 66.8185 36.2986 67.5076 36.8414 68.0484C37.3841 68.5892 38.0756 68.9575 38.8285 69.1067C39.5813 69.256 40.3616 69.1794 41.0707 68.8867C41.7799 68.594 42.386 68.0983 42.8125 67.4624C43.2389 66.8264 43.4665 66.0787 43.4665 65.3139C43.4654 64.2886 43.0561 63.3056 42.3285 62.5807C41.601 61.8557 40.6145 61.4479 39.5856 61.4467Z" fill="#262626"/>
<path d="M27.5592 77.3641V76.0423C27.5578 74.8834 27.1551 73.7605 26.419 72.8633L25.8818 72.2079H36.7462L36.2091 72.8633C35.473 73.7605 35.0702 74.8834 35.0689 76.0423V77.3641C35.0691 77.8548 34.9723 78.3407 34.7839 78.7941C34.5956 79.2475 34.3194 79.6594 33.9712 80.0064C33.623 80.3534 33.2096 80.6286 32.7546 80.8163C32.2996 81.0039 31.812 81.1004 31.3195 81.1002C30.8262 81.1016 30.3376 81.0059 29.8814 80.8188C29.4253 80.6316 29.0107 80.3567 28.6614 80.0096C28.3121 79.6626 28.035 79.2502 27.8458 78.7963C27.6567 78.3423 27.5593 77.8556 27.5592 77.3641Z" fill="white"/>
<path d="M31.2975 81.427C30.2179 81.4239 29.1835 80.9944 28.4211 80.2327C27.6587 79.4709 27.2305 78.439 27.2302 77.3632V76.0414C27.2283 74.9583 26.8519 73.9089 26.1643 73.07L25.6271 72.4146C25.5877 72.3665 25.5627 72.3083 25.5552 72.2467C25.5476 72.1851 25.5578 72.1226 25.5845 72.0666C25.6112 72.0105 25.6533 71.9631 25.7059 71.93C25.7586 71.8968 25.8196 71.8792 25.8819 71.8793H36.7463C36.8086 71.8792 36.8696 71.8968 36.9222 71.93C36.9749 71.9631 37.017 72.0105 37.0437 72.0666C37.0704 72.1226 37.0806 72.1851 37.073 72.2467C37.0655 72.3083 37.0405 72.3665 37.0011 72.4146L36.4639 73.07C35.7763 73.9089 35.3998 74.9583 35.3978 76.0414V77.3632C35.3966 78.4406 34.9665 79.4736 34.202 80.2354C33.4374 80.9972 32.4008 81.4258 31.3196 81.427H31.2975ZM26.575 72.5347L26.6736 72.6549C27.4572 73.611 27.8861 74.807 27.888 76.0414V77.3632C27.8882 78.2655 28.2474 79.131 28.8869 79.7699C29.5263 80.4088 30.3939 80.769 31.2994 80.7716H31.3177C32.2248 80.7709 33.0946 80.4117 33.7362 79.7727C34.3778 79.1337 34.7388 78.2671 34.7399 77.3632V76.0414C34.7419 74.807 35.1708 73.611 35.9543 72.6549L36.053 72.5347H26.575Z" fill="#262626"/>
<path d="M59.8345 87.8177C59.7473 87.8177 59.6636 87.7832 59.6019 87.7217C59.5403 87.6603 59.5056 87.5769 59.5056 87.49V67.0399C59.5056 66.953 59.5403 66.8696 59.6019 66.8081C59.6636 66.7467 59.7473 66.7122 59.8345 66.7122C59.9217 66.7122 60.0054 66.7467 60.0671 66.8081C60.1288 66.8696 60.1634 66.953 60.1634 67.0399V87.49C60.1634 87.5769 60.1288 87.6603 60.0671 87.7217C60.0054 87.7832 59.9217 87.8177 59.8345 87.8177Z" fill="#262626"/>
<path d="M64.3405 66.9526H55.3508C54.6152 66.9526 53.9097 66.6614 53.3895 66.1431C52.8694 65.6248 52.5771 64.9218 52.5771 64.1888C52.5771 63.4557 52.8694 62.7528 53.3895 62.2344C53.9097 61.7161 54.6152 61.4249 55.3508 61.4249H64.3405C65.0761 61.4249 65.7816 61.7161 66.3018 62.2344C66.8219 62.7528 67.1142 63.4557 67.1142 64.1888C67.1142 64.9218 66.8219 65.6248 66.3018 66.1431C65.7816 66.6614 65.0761 66.9526 64.3405 66.9526ZM55.3398 63.6425C55.2664 63.6425 55.1937 63.657 55.1259 63.685C55.058 63.713 54.9964 63.754 54.9445 63.8057C54.8926 63.8575 54.8514 63.9189 54.8233 63.9865C54.7952 64.0541 54.7807 64.1265 54.7807 64.1997C54.7807 64.2728 54.7952 64.3453 54.8233 64.4129C54.8514 64.4805 54.8926 64.5419 54.9445 64.5936C54.9964 64.6454 55.058 64.6864 55.1259 64.7144C55.1937 64.7424 55.2664 64.7568 55.3398 64.7568H64.3296C64.403 64.7568 64.4757 64.7424 64.5435 64.7144C64.6114 64.6864 64.673 64.6454 64.7249 64.5936C64.7768 64.5419 64.818 64.4805 64.8461 64.4129C64.8742 64.3453 64.8887 64.2728 64.8887 64.1997C64.8887 64.1265 64.8742 64.0541 64.8461 63.9865C64.818 63.9189 64.7768 63.8575 64.7249 63.8057C64.673 63.754 64.6114 63.713 64.5435 63.685C64.4757 63.657 64.403 63.6425 64.3296 63.6425H55.3398Z" fill="#00979D"/>
<path d="M63.7705 74.3601C62.7509 74.3601 59.8347 72.5139 59.8347 72.5139C59.8347 72.5139 62.7509 70.6677 63.7705 70.6677C64.0138 70.6677 64.2547 70.7155 64.4795 70.8083C64.7043 70.901 64.9085 71.037 65.0806 71.2085C65.2526 71.3799 65.3891 71.5834 65.4822 71.8074C65.5753 72.0314 65.6232 72.2715 65.6232 72.5139C65.6232 72.7564 65.5753 72.9964 65.4822 73.2204C65.3891 73.4444 65.2526 73.6479 65.0806 73.8194C64.9085 73.9908 64.7043 74.1268 64.4795 74.2196C64.2547 74.3123 64.0138 74.3601 63.7705 74.3601Z" fill="white"/>
<path d="M63.7703 74.6868C62.6863 74.6868 59.9649 72.9836 59.6581 72.7895C59.6114 72.7599 59.5729 72.7191 59.5462 72.6707C59.5196 72.6224 59.5056 72.5681 59.5056 72.5129C59.5056 72.4577 59.5196 72.4035 59.5462 72.3551C59.5729 72.3068 59.6114 72.2659 59.6581 72.2363C59.9651 72.0421 62.6863 70.339 63.7703 70.339C64.3489 70.339 64.9038 70.568 65.3129 70.9757C65.7221 71.3834 65.9519 71.9363 65.9519 72.5129C65.9519 73.0895 65.7221 73.6424 65.3129 74.0501C64.9038 74.4578 64.3489 74.6868 63.7703 74.6868ZM60.4601 72.5129C61.5847 73.1885 63.1818 74.0314 63.7703 74.0314C64.1744 74.0314 64.562 73.8714 64.8478 73.5866C65.1336 73.3019 65.2941 72.9156 65.2941 72.5129C65.2941 72.1102 65.1336 71.724 64.8478 71.4392C64.562 71.1544 64.1744 70.9944 63.7703 70.9944C63.1818 70.9944 61.5847 71.8372 60.4601 72.5129Z" fill="#262626"/>
<path d="M55.9096 74.3601C56.9292 74.3601 59.8454 72.5139 59.8454 72.5139C59.8454 72.5139 56.9292 70.6677 55.9096 70.6677C55.4183 70.6677 54.947 70.8622 54.5995 71.2085C54.2521 71.5547 54.0569 72.0243 54.0569 72.5139C54.0569 73.0035 54.2521 73.4731 54.5995 73.8194C54.947 74.1656 55.4183 74.3601 55.9096 74.3601Z" fill="white"/>
<path d="M55.9097 74.6868C55.3311 74.6868 54.7762 74.4578 54.367 74.0501C53.9579 73.6424 53.728 73.0895 53.728 72.5129C53.728 71.9363 53.9579 71.3834 54.367 70.9757C54.7762 70.568 55.3311 70.339 55.9097 70.339C56.9936 70.339 59.7151 72.0421 60.0218 72.2363C60.0686 72.2659 60.107 72.3068 60.1337 72.3551C60.1604 72.4035 60.1743 72.4577 60.1743 72.5129C60.1743 72.5681 60.1604 72.6224 60.1337 72.6707C60.107 72.7191 60.0686 72.7599 60.0218 72.7895C59.7151 72.9836 56.9936 74.6868 55.9097 74.6868ZM55.9097 70.9944C55.5055 70.9944 55.1179 71.1544 54.8321 71.4392C54.5464 71.724 54.3858 72.1102 54.3858 72.5129C54.3858 72.9156 54.5464 73.3019 54.8321 73.5866C55.1179 73.8714 55.5055 74.0314 55.9097 74.0314C56.4982 74.0314 58.0953 73.1885 59.22 72.5129C58.0953 71.8372 56.4982 70.9944 55.9097 70.9944Z" fill="#262626"/>
<path d="M27.0547 49.0039C26.7466 49.0041 26.4511 49.1261 26.2332 49.3432C26.0153 49.5604 25.8928 49.8548 25.8926 50.1619C25.8925 49.8548 25.77 49.5604 25.5521 49.3432C25.3342 49.1261 25.0387 49.0041 24.7306 49.0039C24.4224 49.0041 24.1269 49.1261 23.909 49.3432C23.6911 49.5604 23.5686 49.8548 23.5685 50.1619C23.5683 49.8548 23.4458 49.5604 23.2279 49.3432C23.01 49.1261 22.7145 49.0041 22.4064 49.0039C22.0982 49.0041 21.8027 49.1261 21.5848 49.3432C21.3669 49.5604 21.2444 49.8548 21.2443 50.1619C21.2441 49.8548 21.1217 49.5604 20.9038 49.3432C20.6859 49.1261 20.3904 49.0041 20.0822 49.0039C19.774 49.0041 19.4786 49.1261 19.2606 49.3432C19.0427 49.5604 18.9203 49.8548 18.9201 50.1619C18.92 49.8548 18.7975 49.5604 18.5796 49.3432C18.3617 49.1261 18.0662 49.0041 17.758 49.0039C17.4499 49.0041 17.1544 49.1261 16.9365 49.3432C16.7186 49.5604 16.5961 49.8548 16.5959 50.1619V55.0231C16.5956 55.7864 16.7462 56.5423 17.0392 57.2476C17.3322 57.9529 17.7618 58.5937 18.3034 59.1334C18.8451 59.6731 19.4882 60.1012 20.196 60.3931C20.9037 60.6851 21.6623 60.8352 22.4283 60.8348C23.1943 60.8352 23.9529 60.6851 24.6607 60.3931C25.3684 60.1012 26.0115 59.6731 26.5532 59.1334C27.0948 58.5937 27.5244 57.9529 27.8174 57.2476C28.1104 56.5423 28.261 55.7864 28.2607 55.0231V50.1619C28.2433 49.8529 28.1093 49.5619 27.8857 49.3471C27.6621 49.1324 27.3652 49.0098 27.0547 49.0039Z" fill="white"/>
<path d="M22.4283 61.1628C20.7948 61.1609 19.2288 60.5135 18.0737 59.3626C16.9186 58.2116 16.2689 56.6511 16.2671 55.0234V50.1621C16.267 49.8545 16.3627 49.5544 16.5412 49.3033C16.7196 49.0523 16.9718 48.8626 17.263 48.7606C17.5543 48.6585 17.8701 48.6491 18.167 48.7336C18.4638 48.8181 18.727 48.9924 18.9202 49.2323C19.0597 49.0588 19.2366 48.9188 19.4377 48.8226C19.6388 48.7264 19.8591 48.6764 20.0822 48.6764C20.3054 48.6764 20.5256 48.7264 20.7268 48.8226C20.9279 48.9188 21.1048 49.0588 21.2443 49.2323C21.3839 49.0588 21.5607 48.9188 21.7619 48.8226C21.963 48.7264 22.1833 48.6764 22.4064 48.6764C22.6295 48.6764 22.8498 48.7264 23.051 48.8226C23.2521 48.9188 23.429 49.0588 23.5685 49.2323C23.708 49.0588 23.8849 48.9188 24.0861 48.8226C24.2872 48.7264 24.5075 48.6764 24.7306 48.6764C24.9537 48.6764 25.174 48.7264 25.3751 48.8226C25.5763 48.9188 25.7531 49.0588 25.8927 49.2323C26.0322 49.0588 26.2091 48.9187 26.4102 48.8225C26.6114 48.7263 26.8316 48.6764 27.0548 48.6764C27.4485 48.6825 27.8254 48.8367 28.1099 49.108C28.3944 49.3794 28.5655 49.7479 28.5888 50.1396C28.5888 50.1471 28.5896 50.1547 28.5896 50.1621V55.0234C28.5878 56.6511 27.938 58.2116 26.783 59.3626C25.6279 60.5135 24.0618 61.1609 22.4283 61.1628ZM17.7581 49.3318C17.5372 49.3321 17.3254 49.4196 17.1692 49.5753C17.013 49.7309 16.9251 49.942 16.9249 50.1621V55.0234C16.9249 56.4778 17.5047 57.8727 18.5368 58.9011C19.5689 59.9295 20.9687 60.5073 22.4283 60.5073C23.888 60.5073 25.2878 59.9295 26.3199 58.9011C27.352 57.8727 27.9318 56.4778 27.9318 55.0234V50.1743C27.918 49.95 27.8202 49.739 27.6578 49.583C27.4955 49.427 27.2802 49.3374 27.0548 49.3318C26.8339 49.3321 26.6221 49.4196 26.4659 49.5753C26.3097 49.7309 26.2218 49.942 26.2216 50.1621C26.2216 50.249 26.1869 50.3324 26.1252 50.3938C26.0636 50.4553 25.9799 50.4898 25.8927 50.4898C25.8054 50.4898 25.7218 50.4553 25.6601 50.3938C25.5984 50.3324 25.5638 50.249 25.5638 50.1621C25.5638 49.9419 25.476 49.7307 25.3197 49.575C25.1635 49.4193 24.9516 49.3318 24.7306 49.3318C24.5096 49.3318 24.2977 49.4193 24.1414 49.575C23.9852 49.7307 23.8974 49.9419 23.8974 50.1621C23.8974 50.249 23.8627 50.3324 23.8011 50.3938C23.7394 50.4553 23.6557 50.4898 23.5685 50.4898C23.4813 50.4898 23.3976 50.4553 23.3359 50.3938C23.2743 50.3324 23.2396 50.249 23.2396 50.1621C23.2396 49.9419 23.1518 49.7307 22.9956 49.575C22.8393 49.4193 22.6274 49.3318 22.4064 49.3318C22.1854 49.3318 21.9735 49.4193 21.8173 49.575C21.661 49.7307 21.5732 49.9419 21.5732 50.1621C21.5732 50.249 21.5386 50.3324 21.4769 50.3938C21.4152 50.4553 21.3316 50.4898 21.2443 50.4898C21.1571 50.4898 21.0734 50.4553 21.0118 50.3938C20.9501 50.3324 20.9154 50.249 20.9154 50.1621C20.9154 49.9419 20.8277 49.7307 20.6714 49.575C20.5151 49.4193 20.3032 49.3318 20.0822 49.3318C19.8613 49.3318 19.6493 49.4193 19.4931 49.575C19.3368 49.7307 19.249 49.9419 19.249 50.1621C19.249 50.249 19.2144 50.3324 19.1527 50.3938C19.091 50.4553 19.0074 50.4898 18.9202 50.4898C18.8329 50.4898 18.7493 50.4553 18.6876 50.3938C18.6259 50.3324 18.5913 50.249 18.5913 50.1621C18.591 49.942 18.5032 49.7309 18.347 49.5753C18.1908 49.4196 17.979 49.3321 17.7581 49.3318Z" fill="#262626"/>
<path d="M13.055 87.8178C12.9677 87.8178 12.8841 87.7832 12.8224 87.7218C12.7607 87.6603 12.7261 87.5769 12.7261 87.49V65.0736C12.7261 64.9867 12.7607 64.9033 12.8224 64.8418C12.8841 64.7804 12.9677 64.7458 13.055 64.7458C13.1422 64.7458 13.2258 64.7804 13.2875 64.8418C13.3492 64.9033 13.3839 64.9867 13.3839 65.0736V87.49C13.3839 87.5769 13.3492 87.6603 13.2875 87.7218C13.2258 87.7832 13.1422 87.8178 13.055 87.8178Z" fill="#262626"/>
<path d="M13.0551 67.9793C14.6657 67.9793 15.9713 66.6783 15.9713 65.0734C15.9713 63.4686 14.6657 62.1676 13.0551 62.1676C11.4445 62.1676 10.1389 63.4686 10.1389 65.0734C10.1389 66.6783 11.4445 67.9793 13.0551 67.9793Z" fill="#F08229"/>
<path d="M15.9714 74.2826C17.5819 74.2826 18.8875 72.9816 18.8875 71.3768C18.8875 69.7719 17.5819 68.4709 15.9714 68.4709C14.3608 68.4709 13.0552 69.7719 13.0552 71.3768C13.0552 72.9816 14.3608 74.2826 15.9714 74.2826Z" fill="#F08229"/>
<path d="M10.1278 74.2826C11.7384 74.2826 13.044 72.9816 13.044 71.3768C13.044 69.7719 11.7384 68.4709 10.1278 68.4709C8.51729 68.4709 7.21167 69.7719 7.21167 71.3768C7.21167 72.9816 8.51729 74.2826 10.1278 74.2826Z" fill="#F08229"/>
<path d="M15.9714 80.7388C17.5819 80.7388 18.8875 79.4378 18.8875 77.833C18.8875 76.2281 17.5819 74.9271 15.9714 74.9271C14.3608 74.9271 13.0552 76.2281 13.0552 77.833C13.0552 79.4378 14.3608 80.7388 15.9714 80.7388Z" fill="#F08229"/>
<path d="M10.1278 80.7388C11.7384 80.7388 13.044 79.4378 13.044 77.833C13.044 76.2281 11.7384 74.9271 10.1278 74.9271C8.51729 74.9271 7.21167 76.2281 7.21167 77.833C7.21167 79.4378 8.51729 80.7388 10.1278 80.7388Z" fill="#F08229"/>
<path d="M31.3196 87.8176C31.2324 87.8176 31.1487 87.7831 31.0871 87.7216C31.0254 87.6602 30.9907 87.5768 30.9907 87.4899V79.2832C30.9907 79.1963 31.0254 79.1129 31.0871 79.0514C31.1487 78.99 31.2324 78.9554 31.3196 78.9554C31.4068 78.9554 31.4905 78.99 31.5522 79.0514C31.6139 79.1129 31.6485 79.1963 31.6485 79.2832V87.4899C31.6485 87.5768 31.6139 87.6602 31.5522 87.7216C31.4905 87.7831 31.4068 87.8176 31.3196 87.8176Z" fill="#262626"/>
<path d="M31.3194 72.4909C31.2751 72.491 31.2312 72.4821 31.1904 72.4647C31.1496 72.4474 31.1127 72.422 31.0821 72.3901L29.021 70.249C28.9911 70.2179 28.9676 70.1813 28.9519 70.1412C28.9362 70.1011 28.9286 70.0583 28.9295 70.0153C28.9304 69.9723 28.9398 69.9298 28.9572 69.8904C28.9745 69.851 28.9995 69.8154 29.0307 69.7856C29.0618 69.7558 29.0986 69.7324 29.1388 69.7167C29.1791 69.7011 29.222 69.6935 29.2652 69.6944C29.3084 69.6953 29.3509 69.7047 29.3905 69.722C29.4301 69.7392 29.4658 69.7641 29.4957 69.7952L31.5568 71.9363C31.6014 71.9827 31.6314 72.0411 31.643 72.1043C31.6546 72.1675 31.6473 72.2327 31.622 72.2918C31.5967 72.3509 31.5545 72.4012 31.5007 72.4367C31.4469 72.4721 31.3839 72.4909 31.3194 72.4909Z" fill="#262626"/>
<path d="M31.3196 72.4909C31.2324 72.4909 31.1487 72.4564 31.0871 72.3949C31.0254 72.3335 30.9907 72.2501 30.9907 72.1632V69.312C30.9907 69.2251 31.0254 69.1417 31.0871 69.0802C31.1487 69.0188 31.2324 68.9843 31.3196 68.9843C31.4068 68.9843 31.4905 69.0188 31.5522 69.0802C31.6139 69.1417 31.6485 69.2251 31.6485 69.312V71.3481L33.1433 69.7952C33.2037 69.7324 33.2866 69.6962 33.3738 69.6944C33.4611 69.6926 33.5454 69.7254 33.6084 69.7855C33.6713 69.8457 33.7077 69.9283 33.7095 70.0153C33.7113 70.1022 33.6784 70.1862 33.618 70.2489L31.557 72.3901C31.5263 72.422 31.4894 72.4473 31.4486 72.4647C31.4078 72.482 31.364 72.4909 31.3196 72.4909Z" fill="#262626"/>
<path d="M39.5857 87.8177C39.4985 87.8177 39.4148 87.7832 39.3532 87.7217C39.2915 87.6603 39.2568 87.5769 39.2568 87.49V69.5088C39.2568 69.4218 39.2915 69.3385 39.3532 69.277C39.4148 69.2156 39.4985 69.181 39.5857 69.181C39.673 69.181 39.7566 69.2156 39.8183 69.277C39.88 69.3385 39.9146 69.4218 39.9146 69.5088V87.49C39.9146 87.5769 39.88 87.6603 39.8183 87.7217C39.7566 87.7832 39.673 87.8177 39.5857 87.8177Z" fill="#262626"/>
<path d="M39.5858 66.297C38.7216 66.2949 37.8757 66.048 37.147 65.5851C36.4182 65.1223 35.8365 64.4624 35.4698 63.6826C35.4329 63.6038 35.429 63.5137 35.4588 63.432C35.4887 63.3503 35.5499 63.2838 35.6289 63.2471C35.708 63.2103 35.7985 63.2064 35.8805 63.2362C35.9624 63.2659 36.0292 63.3269 36.066 63.4057C36.3781 64.0737 36.8752 64.639 37.4987 65.0351C38.1223 65.4312 38.8464 65.6416 39.5858 65.6416C40.3253 65.6416 41.0494 65.4312 41.6729 65.0351C42.2965 64.639 42.7935 64.0737 43.1057 63.4057C43.1237 63.3663 43.1494 63.331 43.1812 63.3016C43.213 63.2722 43.2504 63.2494 43.2911 63.2344C43.3318 63.2195 43.3751 63.2127 43.4185 63.2145C43.4618 63.2163 43.5044 63.2267 43.5437 63.2449C43.583 63.2632 43.6184 63.289 43.6476 63.321C43.6769 63.3529 43.6995 63.3903 43.7142 63.431C43.7289 63.4716 43.7354 63.5148 43.7333 63.558C43.7311 63.6012 43.7204 63.6435 43.7018 63.6826C43.3351 64.4624 42.7535 65.1223 42.0247 65.5852C41.2959 66.0481 40.4501 66.295 39.5858 66.297Z" fill="#262626"/>
<path d="M41.3398 65.9038C41.2922 65.9038 41.2453 65.8934 41.2021 65.8735C40.3133 65.4662 39.5809 64.7829 39.1144 63.9261C38.6479 63.0693 38.4724 62.0849 38.6143 61.1204C38.6275 61.0349 38.6741 60.9581 38.744 60.9067C38.8139 60.8553 38.9013 60.8336 38.9872 60.8461C39.0731 60.8587 39.1505 60.9047 39.2026 60.9739C39.2546 61.0432 39.2771 61.1301 39.265 61.2158C39.1439 62.0403 39.294 62.8817 39.6929 63.6141C40.0918 64.3465 40.7181 64.9304 41.4779 65.2784C41.5461 65.3097 41.6015 65.3632 41.6349 65.4302C41.6683 65.4972 41.6777 65.5735 41.6616 65.6465C41.6455 65.7195 41.6047 65.7849 41.5462 65.8317C41.4877 65.8785 41.4148 65.9039 41.3398 65.9038Z" fill="#262626"/>
<path d="M48.3672 87.8176C48.28 87.8176 48.1963 87.7831 48.1347 87.7216C48.073 87.6602 48.0383 87.5768 48.0383 87.4899V85.3706C48.0383 85.2837 48.073 85.2003 48.1347 85.1388C48.1963 85.0774 48.28 85.0428 48.3672 85.0428C48.4544 85.0428 48.5381 85.0774 48.5998 85.1388C48.6615 85.2003 48.6961 85.2837 48.6961 85.3706V87.4899C48.6961 87.5329 48.6876 87.5755 48.6711 87.6153C48.6545 87.6551 48.6303 87.6912 48.5998 87.7216C48.5692 87.752 48.533 87.7762 48.4931 87.7927C48.4532 87.8091 48.4104 87.8176 48.3672 87.8176Z" fill="#262626"/>
<path d="M48.3562 68.8096H48.3551C48.3119 68.8094 48.2692 68.8008 48.2293 68.7842C48.1895 68.7676 48.1533 68.7433 48.1229 68.7128C48.0924 68.6822 48.0683 68.646 48.0519 68.6062C48.0355 68.5663 48.0272 68.5237 48.0273 68.4806L48.0383 65.3126C48.0386 65.2259 48.0734 65.1428 48.1351 65.0816C48.1967 65.0204 48.2802 64.9861 48.3672 64.9861H48.3683C48.4115 64.9862 48.4542 64.9948 48.4941 65.0114C48.5339 65.028 48.5701 65.0523 48.6005 65.0828C48.631 65.1134 48.6551 65.1496 48.6715 65.1894C48.6879 65.2292 48.6962 65.2719 48.6961 65.3149L48.6851 68.4829C48.6848 68.5696 48.6501 68.6527 48.5884 68.714C48.5268 68.7752 48.4433 68.8096 48.3562 68.8096Z" fill="#262626"/>
<path d="M48.3561 68.8096C48.2925 68.8097 48.2302 68.7913 48.1769 68.7568C48.1235 68.7223 48.0814 68.6731 48.0555 68.6152L46.7618 65.7203C46.7264 65.6408 46.724 65.5506 46.7552 65.4695C46.7865 65.3883 46.8488 65.3229 46.9285 65.2875C47.0082 65.2521 47.0988 65.2498 47.1802 65.2809C47.2617 65.3121 47.3274 65.3742 47.3628 65.4536L48.6565 68.3485C48.6788 68.3984 48.6882 68.4531 48.684 68.5075C48.6797 68.562 48.6618 68.6145 48.6319 68.6603C48.6021 68.7062 48.5612 68.7438 48.513 68.7699C48.4649 68.796 48.4109 68.8096 48.3561 68.8096Z" fill="#262626"/>
<path d="M48.3563 68.8095C48.3014 68.8094 48.2474 68.7957 48.1992 68.7696C48.151 68.7434 48.1101 68.7056 48.0803 68.6597C48.0505 68.6138 48.0327 68.5612 48.0285 68.5066C48.0244 68.4521 48.034 68.3974 48.0565 68.3475L49.3611 65.4526C49.3968 65.3733 49.4627 65.3114 49.5442 65.2804C49.6257 65.2495 49.7162 65.2522 49.7958 65.2878C49.8754 65.3234 49.9375 65.389 49.9685 65.4702C49.9995 65.5515 49.9969 65.6417 49.9612 65.721L48.6566 68.6159C48.6306 68.6736 48.5884 68.7226 48.5351 68.7569C48.4819 68.7912 48.4198 68.8095 48.3563 68.8095Z" fill="#262626"/>
<path d="M51.1845 77.965L48.356 80.7835L45.5276 77.965C44.6429 77.0802 44.1462 75.8821 44.1462 74.6331C44.1462 73.3841 44.6429 72.1861 45.5276 71.3012L48.356 68.4828L51.1845 71.3012C51.6249 71.7381 51.9744 72.2573 52.2129 72.8291C52.4513 73.4008 52.5741 74.0139 52.5741 74.6331C52.5741 75.2523 52.4513 75.8654 52.2129 76.4372C51.9744 77.009 51.6249 77.5282 51.1845 77.965Z" fill="white"/>
<path d="M48.3562 81.1103C48.313 81.1104 48.2702 81.102 48.2303 81.0855C48.1904 81.069 48.1542 81.0448 48.1237 81.0143L45.2952 78.1959C44.3506 77.2488 43.8204 75.9679 43.8203 74.6327C43.8202 73.2976 44.3502 72.0166 45.2945 71.0694L48.1237 68.2503C48.1854 68.1888 48.269 68.1543 48.3562 68.1543C48.4434 68.1543 48.5271 68.1888 48.5887 68.2503L51.4172 71.0687C51.8882 71.5359 52.2619 72.0913 52.5169 72.7028C52.7718 73.3144 52.9031 73.9701 52.9031 74.6323C52.9031 75.2945 52.7718 75.9502 52.5169 76.5618C52.2619 77.1733 51.8882 77.7286 51.4172 78.1959L48.5887 81.0143C48.5582 81.0448 48.522 81.069 48.4821 81.0855C48.4422 81.1019 48.3994 81.1104 48.3562 81.1103ZM48.3562 68.9455L45.7603 71.5321C44.9387 72.3562 44.4776 73.4707 44.4776 74.6323C44.4776 75.7939 44.9387 76.9084 45.7603 77.7325L48.3562 80.3192L50.9522 77.7325C51.362 77.3261 51.6872 76.8431 51.9091 76.3112C52.131 75.7793 52.2453 75.2089 52.2454 74.6328C52.2454 74.0567 52.1313 73.4863 51.9095 72.9543C51.6876 72.4224 51.3625 71.9393 50.9528 71.5329L48.3562 68.9455Z" fill="#262626"/>
<path d="M48.3672 85.3715C49.6387 85.3715 50.6694 84.3444 50.6694 83.0774C50.6694 81.8104 49.6387 80.7833 48.3672 80.7833C47.0957 80.7833 46.0649 81.8104 46.0649 83.0774C46.0649 84.3444 47.0957 85.3715 48.3672 85.3715Z" fill="white"/>
<path d="M48.3672 85.6983C47.8468 85.6983 47.3381 85.5446 46.9054 85.2565C46.4728 84.9684 46.1355 84.5589 45.9364 84.0799C45.7372 83.6008 45.6851 83.0736 45.7866 82.565C45.8882 82.0565 46.1388 81.5893 46.5067 81.2226C46.8747 80.856 47.3435 80.6063 47.8539 80.5051C48.3643 80.4039 48.8933 80.4558 49.3741 80.6543C49.8549 80.8527 50.2658 81.1888 50.5549 81.6199C50.844 82.0511 50.9984 82.558 50.9984 83.0765C50.9976 83.7716 50.7201 84.438 50.2268 84.9296C49.7336 85.4211 49.0648 85.6976 48.3672 85.6983ZM48.3672 81.1102C47.9769 81.1102 47.5954 81.2255 47.2709 81.4416C46.9464 81.6576 46.6934 81.9647 46.5441 82.324C46.3947 82.6833 46.3556 83.0787 46.4318 83.4601C46.5079 83.8416 46.6959 84.192 46.9719 84.467C47.2478 84.742 47.5994 84.9292 47.9822 85.0051C48.365 85.081 48.7618 85.042 49.1224 84.8932C49.483 84.7444 49.7912 84.4923 50.008 84.169C50.2248 83.8456 50.3406 83.4654 50.3406 83.0765C50.34 82.5552 50.1319 82.0554 49.7619 81.6868C49.392 81.3181 48.8904 81.1108 48.3672 81.1102Z" fill="#262626"/>
<path d="M65.1077 87.4908H5.63306V108.017H65.1077V87.4908Z" fill="white"/>
<path d="M65.1078 108.344H5.63309C5.54586 108.344 5.46221 108.31 5.40053 108.248C5.33885 108.187 5.3042 108.103 5.3042 108.016V87.4898C5.3042 87.4029 5.33885 87.3196 5.40053 87.2581C5.46221 87.1966 5.54586 87.1621 5.63309 87.1621H65.1078C65.195 87.1621 65.2787 87.1966 65.3404 87.2581C65.402 87.3196 65.4367 87.4029 65.4367 87.4898V108.016C65.4367 108.103 65.402 108.187 65.3404 108.248C65.2787 108.31 65.195 108.344 65.1078 108.344ZM5.96198 107.689H64.7789V87.8176H5.96198V107.689Z" fill="#262626"/>
<path d="M65.1078 91.5866H5.63309C5.54586 91.5866 5.46221 91.5521 5.40053 91.4906C5.33885 91.4292 5.3042 91.3458 5.3042 91.2589C5.3042 91.172 5.33885 91.0886 5.40053 91.0271C5.46221 90.9657 5.54586 90.9312 5.63309 90.9312H65.1078C65.195 90.9312 65.2787 90.9657 65.3404 91.0271C65.402 91.0886 65.4367 91.172 65.4367 91.2589C65.4367 91.3458 65.402 91.4292 65.3404 91.4906C65.2787 91.5521 65.195 91.5866 65.1078 91.5866Z" fill="#262626"/>
<path d="M25.8819 54.9686C25.7946 54.9686 25.711 54.9341 25.6493 54.8726C25.5876 54.8112 25.553 54.7278 25.553 54.6409V50.0746C25.553 49.9876 25.5876 49.9043 25.6493 49.8428C25.711 49.7814 25.7946 49.7468 25.8819 49.7468C25.9691 49.7468 26.0528 49.7814 26.1144 49.8428C26.1761 49.9043 26.2108 49.9876 26.2108 50.0746V54.6409C26.2108 54.7278 26.1761 54.8112 26.1144 54.8726C26.0528 54.9341 25.9691 54.9686 25.8819 54.9686Z" fill="#262626"/>
<path d="M23.5579 54.9686C23.4707 54.9686 23.387 54.9341 23.3253 54.8726C23.2637 54.8112 23.229 54.7278 23.229 54.6409V50.0746C23.229 49.9876 23.2637 49.9043 23.3253 49.8428C23.387 49.7814 23.4707 49.7468 23.5579 49.7468C23.6451 49.7468 23.7288 49.7814 23.7905 49.8428C23.8521 49.9043 23.8868 49.9876 23.8868 50.0746V54.6409C23.8868 54.7278 23.8521 54.8112 23.7905 54.8726C23.7288 54.9341 23.6451 54.9686 23.5579 54.9686Z" fill="#262626"/>
<path d="M21.2224 54.9686C21.1352 54.9686 21.0516 54.9341 20.9899 54.8726C20.9282 54.8112 20.8936 54.7278 20.8936 54.6409V50.0746C20.8936 49.9876 20.9282 49.9043 20.9899 49.8428C21.0516 49.7814 21.1352 49.7468 21.2224 49.7468C21.3097 49.7468 21.3933 49.7814 21.455 49.8428C21.5167 49.9043 21.5513 49.9876 21.5513 50.0746V54.6409C21.5513 54.7278 21.5167 54.8112 21.455 54.8726C21.3933 54.9341 21.3097 54.9686 21.2224 54.9686Z" fill="#262626"/>
<path d="M18.8875 54.9686C18.8003 54.9686 18.7166 54.9341 18.6549 54.8726C18.5932 54.8112 18.5586 54.7278 18.5586 54.6409V50.0746C18.5586 49.9876 18.5932 49.9043 18.6549 49.8428C18.7166 49.7814 18.8003 49.7468 18.8875 49.7468C18.9747 49.7468 19.0584 49.7814 19.12 49.8428C19.1817 49.9043 19.2164 49.9876 19.2164 50.0746V54.6409C19.2164 54.7278 19.1817 54.8112 19.12 54.8726C19.0584 54.9341 18.9747 54.9686 18.8875 54.9686Z" fill="#262626"/>
<path d="M22.3846 87.8177C22.2973 87.8177 22.2137 87.7832 22.152 87.7218C22.0903 87.6603 22.0557 87.5769 22.0557 87.49V57.656C22.0557 57.5691 22.0903 57.4857 22.152 57.4242C22.2137 57.3628 22.2973 57.3282 22.3846 57.3282C22.4718 57.3282 22.5554 57.3628 22.6171 57.4242C22.6788 57.4857 22.7134 57.5691 22.7134 57.656V87.49C22.7134 87.5769 22.6788 87.6603 22.6171 87.7218C22.5554 87.7832 22.4718 87.8177 22.3846 87.8177Z" fill="#262626"/>
<path d="M91.3205 58.8994L83.9933 42.5349V26.1593H59.2258C58.4628 29.1821 57.6549 30.6104 56.6215 30.8395C56.5308 30.8601 56.438 30.8707 56.345 30.8711C56.1122 30.8751 55.8863 30.792 55.7119 30.6381C55.2544 30.234 55.0719 29.3389 55.1349 27.5017C54.3813 29.5324 53.7224 30.2294 52.6838 30.3926C52.513 30.4244 52.3368 30.4105 52.1731 30.3524C52.0094 30.2942 51.8641 30.1938 51.7519 30.0615C51.3253 29.5773 51.2216 28.654 51.3066 27.5935C51.087 27.901 50.768 28.1237 50.4032 28.2244C50.2636 28.274 50.1132 28.2853 49.9678 28.257C49.8223 28.2288 49.6872 28.1621 49.5765 28.0638C49.1926 27.7203 49.0689 26.9789 49.0909 26.16H37.2603V42.5349L44.5875 58.8994L37.2603 75.275L44.5875 91.6505L37.2603 108.015H83.9933L91.3205 91.6505L83.9933 75.275L91.3205 58.8994Z" fill="white"/>
<path d="M83.9933 108.344H37.2603C37.2051 108.344 37.1507 108.331 37.1022 108.304C37.0537 108.278 37.0126 108.24 36.9825 108.194C36.9525 108.148 36.9345 108.095 36.9302 108.04C36.926 107.985 36.9355 107.93 36.958 107.879L44.225 91.6496L36.9579 75.4085C36.939 75.3662 36.9292 75.3204 36.9292 75.274C36.9292 75.2276 36.939 75.1818 36.9579 75.1395L44.225 58.8985L36.958 42.6685C36.9391 42.6262 36.9293 42.5803 36.9292 42.534V26.1584C36.9292 26.0708 36.9641 25.9869 37.0262 25.9249C37.0883 25.863 37.1725 25.8282 37.2603 25.8282H49.0912C49.1354 25.8282 49.1792 25.8371 49.22 25.8542C49.2608 25.8714 49.2977 25.8965 49.3285 25.9281C49.3594 25.9597 49.3836 25.9972 49.3997 26.0383C49.4158 26.0794 49.4235 26.1233 49.4223 26.1674C49.4002 26.9818 49.5367 27.5834 49.7974 27.8169C49.8655 27.877 49.9489 27.9173 50.0384 27.9334C50.128 27.9494 50.2202 27.9405 50.305 27.9078C50.6026 27.8281 50.8626 27.6469 51.0401 27.3958C51.0829 27.3382 51.1434 27.2961 51.2123 27.2759C51.2812 27.2556 51.3549 27.2582 51.4222 27.2834C51.4895 27.3085 51.5468 27.3549 51.5853 27.4154C51.6239 27.4758 51.6417 27.5472 51.636 27.6187C51.5502 28.6886 51.6795 29.4785 52.0001 29.8425C52.0754 29.9331 52.1739 30.0017 52.2852 30.0409C52.3965 30.0802 52.5163 30.0886 52.632 30.0652C53.4375 29.9388 54.0544 29.4599 54.8239 27.3859C54.8511 27.3123 54.9038 27.2508 54.9724 27.2125C55.041 27.1741 55.1211 27.1613 55.1983 27.1765C55.2755 27.1916 55.3447 27.2337 55.3936 27.2951C55.4426 27.3566 55.4679 27.4334 55.4652 27.5118C55.4082 29.1676 55.5517 30.0552 55.9309 30.3901C56.0156 30.4602 56.1164 30.5085 56.2243 30.5305C56.3322 30.5526 56.4438 30.5477 56.5494 30.5164C57.4417 30.3183 58.1901 28.9081 58.9045 26.0778C58.9225 26.0065 58.9639 25.9431 59.0221 25.8979C59.0803 25.8527 59.152 25.8282 59.2258 25.8282H83.9933C84.0812 25.8282 84.1654 25.863 84.2274 25.9249C84.2895 25.9869 84.3244 26.0708 84.3244 26.1584V42.4635L91.6228 58.7638C91.6418 58.8062 91.6516 58.8521 91.6516 58.8985C91.6516 58.9449 91.6418 58.9907 91.6228 59.0331L84.3558 75.2741L91.6229 91.515C91.6419 91.5574 91.6517 91.6032 91.6517 91.6496C91.6517 91.696 91.6419 91.7419 91.6229 91.7842L84.2957 108.149C84.2696 108.207 84.2272 108.256 84.1735 108.291C84.1199 108.326 84.0573 108.344 83.9933 108.344ZM37.7707 107.684H83.7786L90.9581 91.6496L83.691 75.4085C83.6721 75.3662 83.6623 75.3204 83.6623 75.274C83.6623 75.2276 83.6721 75.1818 83.691 75.1395L90.9581 58.8985L83.6911 42.6685C83.6721 42.6262 83.6623 42.5803 83.6623 42.534V26.4886H59.4828C58.6976 29.501 57.8578 30.9027 56.6931 31.161C56.5787 31.1867 56.4619 31.1999 56.3447 31.2004C56.031 31.2043 55.727 31.0917 55.492 30.8844C55.1107 30.5476 54.8971 29.9777 54.8223 29.0309C54.247 30.0923 53.6172 30.579 52.7349 30.7176C52.509 30.7576 52.2765 30.7382 52.0604 30.6611C51.8443 30.5841 51.6521 30.4521 51.5029 30.2783C51.1486 29.8757 50.9631 29.2288 50.9487 28.3498C50.8068 28.4278 50.6572 28.4909 50.5022 28.5381C50.3077 28.6045 50.0989 28.6182 49.8973 28.5778C49.6957 28.5374 49.5084 28.4444 49.3546 28.3082C48.9781 27.9714 48.7781 27.36 48.7587 26.4886H37.5913V42.4635L44.8898 58.7638C44.9087 58.8062 44.9185 58.8521 44.9185 58.8985C44.9185 58.9449 44.9087 58.9907 44.8898 59.0331L37.6228 75.2741L44.8899 91.515C44.9088 91.5574 44.9186 91.6032 44.9186 91.6496C44.9186 91.696 44.9088 91.7419 44.8899 91.7842L37.7707 107.684Z" fill="#262626"/>
<path d="M83.9932 42.7541H37.2602C37.1724 42.7541 37.0882 42.7193 37.0262 42.6574C36.9641 42.5954 36.9292 42.5115 36.9292 42.4239C36.9292 42.3363 36.9641 42.2524 37.0262 42.1905C37.0882 42.1285 37.1724 42.0938 37.2602 42.0938H83.9932C84.081 42.0938 84.1652 42.1285 84.2273 42.1905C84.2894 42.2524 84.3243 42.3363 84.3243 42.4239C84.3243 42.5115 84.2894 42.5954 84.2273 42.6574C84.1652 42.7193 84.081 42.7541 83.9932 42.7541Z" fill="#262626"/>
<path d="M83.9932 75.4942H37.2602C37.1724 75.4942 37.0882 75.4594 37.0262 75.3975C36.9641 75.3355 36.9292 75.2516 36.9292 75.164C36.9292 75.0764 36.9641 74.9925 37.0262 74.9306C37.0882 74.8686 37.1724 74.8339 37.2602 74.8339H83.9932C84.081 74.8339 84.1652 74.8686 84.2273 74.9306C84.2894 74.9925 84.3243 75.0764 84.3243 75.164C84.3243 75.2516 84.2894 75.3355 84.2273 75.3975C84.1652 75.4594 84.081 75.4942 83.9932 75.4942Z" fill="#262626"/>
<path d="M91.3204 59.1297H44.5874C44.4996 59.1297 44.4154 59.0949 44.3533 59.033C44.2912 58.971 44.2563 58.8871 44.2563 58.7995C44.2563 58.7119 44.2912 58.628 44.3533 58.5661C44.4154 58.5041 44.4996 58.4694 44.5874 58.4694H91.3204C91.4082 58.4694 91.4924 58.5041 91.5545 58.5661C91.6166 58.628 91.6515 58.7119 91.6515 58.7995C91.6515 58.8871 91.6166 58.971 91.5545 59.033C91.4924 59.0949 91.4082 59.1297 91.3204 59.1297Z" fill="#262626"/>
<path d="M91.0997 91.8697H44.5874C44.4996 91.8697 44.4154 91.8349 44.3533 91.773C44.2912 91.7111 44.2563 91.6271 44.2563 91.5395C44.2563 91.452 44.2912 91.368 44.3533 91.3061C44.4154 91.2441 44.4996 91.2094 44.5874 91.2094H91.0997C91.1875 91.2094 91.2717 91.2441 91.3338 91.3061C91.3959 91.368 91.4308 91.452 91.4308 91.5395C91.4308 91.6271 91.3959 91.7111 91.3338 91.773C91.2717 91.8349 91.1875 91.8697 91.0997 91.8697Z" fill="#262626"/>
<path d="M149.723 108.569H0.276685C0.119897 108.569 0 108.43 0 108.249C0 108.067 0.119897 107.928 0.276685 107.928H149.723C149.88 107.928 150 108.067 150 108.249C150 108.43 149.88 108.569 149.723 108.569Z" fill="#262626"/>
</svg>
