<svg width="24" height="24" viewBox="0 0 24 24" fill="none" xmlns="http://www.w3.org/2000/svg">
<path d="M12 1.99951C6.48 1.99951 2 6.47951 2 11.9995C2 17.5195 6.48 21.9995 12 21.9995C17.52 21.9995 22 17.5195 22 11.9995C22 6.47951 17.52 1.99951 12 1.99951ZM7.07 18.2795C7.5 17.3795 10.12 16.4995 12 16.4995C13.88 16.4995 16.51 17.3795 16.93 18.2795C15.57 19.3595 13.86 19.9995 12 19.9995C10.14 19.9995 8.43 19.3595 7.07 18.2795ZM18.36 16.8295C16.93 15.0895 13.46 14.4995 12 14.4995C10.54 14.4995 7.07 15.0895 5.64 16.8295C4.62 15.4895 4 13.8195 4 11.9995C4 7.58951 7.59 3.99951 12 3.99951C16.41 3.99951 20 7.58951 20 11.9995C20 13.8195 19.38 15.4895 18.36 16.8295ZM12 5.99951C10.06 5.99951 8.5 7.55951 8.5 9.49951C8.5 11.4395 10.06 12.9995 12 12.9995C13.94 12.9995 15.5 11.4395 15.5 9.49951C15.5 7.55951 13.94 5.99951 12 5.99951ZM12 10.9995C11.17 10.9995 10.5 10.3295 10.5 9.49951C10.5 8.66951 11.17 7.99951 12 7.99951C12.83 7.99951 13.5 8.66951 13.5 9.49951C13.5 10.3295 12.83 10.9995 12 10.9995Z" fill="#262626"/>
</svg>
