<svg width="24" height="24" viewBox="0 0 24 24" fill="none" xmlns="http://www.w3.org/2000/svg">
<path d="M17 11.9995C14.24 11.9995 12 14.2395 12 16.9995C12 19.7595 14.24 21.9995 17 21.9995C19.76 21.9995 22 19.7595 22 16.9995C22 14.2395 19.76 11.9995 17 11.9995ZM18.65 19.3495L16.5 17.1995V13.9995H17.5V16.7895L19.35 18.6395L18.65 19.3495ZM18 2.99951H14.82C14.4 1.83951 13.3 0.999512 12 0.999512C10.7 0.999512 9.6 1.83951 9.18 2.99951H6C4.9 2.99951 4 3.89951 4 4.99951V19.9995C4 21.0995 4.9 21.9995 6 21.9995H12.11C11.52 21.4295 11.04 20.7495 10.69 19.9995H6V4.99951H8V7.99951H16V4.99951H18V10.0795C18.71 10.1795 19.38 10.3895 20 10.6795V4.99951C20 3.89951 19.1 2.99951 18 2.99951ZM12 4.99951C11.45 4.99951 11 4.54951 11 3.99951C11 3.44951 11.45 2.99951 12 2.99951C12.55 2.99951 13 3.44951 13 3.99951C13 4.54951 12.55 4.99951 12 4.99951Z" fill="#262626"/>
</svg>