<svg width="24" height="24" viewBox="0 0 24 24" fill="none" xmlns="http://www.w3.org/2000/svg">
<path d="M19.4301 12.9795C19.4701 12.6595 19.5001 12.3395 19.5001 11.9995C19.5001 11.6595 19.4701 11.3395 19.4301 11.0195L21.5401 9.36951C21.7301 9.21951 21.7801 8.94951 21.6601 8.72951L19.6601 5.26951C19.5701 5.10951 19.4001 5.01951 19.2201 5.01951C19.1601 5.01951 19.1001 5.02951 19.0501 5.04951L16.5601 6.04951C16.0401 5.64951 15.4801 5.31951 14.8701 5.06951L14.4901 2.41951C14.4601 2.17951 14.2501 1.99951 14.0001 1.99951H10.0001C9.75008 1.99951 9.54008 2.17951 9.51008 2.41951L9.13008 5.06951C8.52008 5.31951 7.96008 5.65951 7.44008 6.04951L4.95008 5.04951C4.89008 5.02951 4.83008 5.01951 4.77008 5.01951C4.60008 5.01951 4.43008 5.10951 4.34008 5.26951L2.34008 8.72951C2.21008 8.94951 2.27008 9.21951 2.46008 9.36951L4.57008 11.0195C4.53008 11.3395 4.50008 11.6695 4.50008 11.9995C4.50008 12.3295 4.53008 12.6595 4.57008 12.9795L2.46008 14.6295C2.27008 14.7795 2.22008 15.0495 2.34008 15.2695L4.34008 18.7295C4.43008 18.8895 4.60008 18.9795 4.78008 18.9795C4.84008 18.9795 4.90008 18.9695 4.95008 18.9495L7.44008 17.9495C7.96008 18.3495 8.52008 18.6795 9.13008 18.9295L9.51008 21.5795C9.54008 21.8195 9.75008 21.9995 10.0001 21.9995H14.0001C14.2501 21.9995 14.4601 21.8195 14.4901 21.5795L14.8701 18.9295C15.4801 18.6795 16.0401 18.3395 16.5601 17.9495L19.0501 18.9495C19.1101 18.9695 19.1701 18.9795 19.2301 18.9795C19.4001 18.9795 19.5701 18.8895 19.6601 18.7295L21.6601 15.2695C21.7801 15.0495 21.7301 14.7795 21.5401 14.6295L19.4301 12.9795ZM17.4501 11.2695C17.4901 11.5795 17.5001 11.7895 17.5001 11.9995C17.5001 12.2095 17.4801 12.4295 17.4501 12.7295L17.3101 13.8595L18.2001 14.5595L19.2801 15.3995L18.5801 16.6095L17.3101 16.0995L16.2701 15.6795L15.3701 16.3595C14.9401 16.6795 14.5301 16.9195 14.1201 17.0895L13.0601 17.5195L12.9001 18.6495L12.7001 19.9995H11.3001L11.1101 18.6495L10.9501 17.5195L9.89008 17.0895C9.46008 16.9095 9.06008 16.6795 8.66008 16.3795L7.75008 15.6795L6.69008 16.1095L5.42008 16.6195L4.72008 15.4095L5.80008 14.5695L6.69008 13.8695L6.55008 12.7395C6.52008 12.4295 6.50008 12.1995 6.50008 11.9995C6.50008 11.7995 6.52008 11.5695 6.55008 11.2695L6.69008 10.1395L5.80008 9.43951L4.72008 8.59951L5.42008 7.38951L6.69008 7.89951L7.73008 8.31951L8.63008 7.63951C9.06008 7.31951 9.47008 7.07951 9.88008 6.90951L10.9401 6.47951L11.1001 5.34951L11.3001 3.99951H12.6901L12.8801 5.34951L13.0401 6.47951L14.1001 6.90951C14.5301 7.08951 14.9301 7.31951 15.3301 7.61951L16.2401 8.31951L17.3001 7.88951L18.5701 7.37951L19.2701 8.58951L18.2001 9.43951L17.3101 10.1395L17.4501 11.2695ZM12.0001 7.99951C9.79008 7.99951 8.00008 9.78951 8.00008 11.9995C8.00008 14.2095 9.79008 15.9995 12.0001 15.9995C14.2101 15.9995 16.0001 14.2095 16.0001 11.9995C16.0001 9.78951 14.2101 7.99951 12.0001 7.99951ZM12.0001 13.9995C10.9001 13.9995 10.0001 13.0995 10.0001 11.9995C10.0001 10.8995 10.9001 9.99951 12.0001 9.99951C13.1001 9.99951 14.0001 10.8995 14.0001 11.9995C14.0001 13.0995 13.1001 13.9995 12.0001 13.9995Z" fill="#262626"/>
</svg>