<svg width="34" height="12" viewBox="0 0 34 12" fill="none" xmlns="http://www.w3.org/2000/svg">
<path d="M14.5934 10.8285H11.8466L13.5633 0.27788H16.3105L14.5934 10.8285ZM9.53573 0.27788L6.91699 7.53468L6.60711 5.97201L6.60739 5.97257L5.68311 1.22784C5.68311 1.22784 5.57135 0.27788 4.38009 0.27788H0.0508001L0 0.456527C0 0.456527 1.32391 0.731976 2.87331 1.66246L5.25978 10.8288H8.1218L12.492 0.27788H9.53573ZM31.1413 10.8285H33.6635L31.4644 0.277598H29.2563C28.2366 0.277598 27.9883 1.06387 27.9883 1.06387L23.8915 10.8285H26.755L27.3276 9.26131H30.8195L31.1413 10.8285ZM28.1187 7.09638L29.562 3.14809L30.3739 7.09638H28.1187ZM24.1063 2.81506L24.4983 0.549378C24.4983 0.549378 23.2887 0.0893555 22.0277 0.0893555C20.6646 0.0893555 17.4275 0.685128 17.4275 3.58215C17.4275 6.30785 21.2268 6.34172 21.2268 7.77344C21.2268 9.20515 17.819 8.94861 16.6943 8.04578L16.2859 10.4148C16.2859 10.4148 17.5125 11.0105 19.3864 11.0105C21.2609 11.0105 24.0888 10.04 24.0888 7.39836C24.0888 4.65516 20.2554 4.39974 20.2554 3.20707C20.2557 2.01412 22.9309 2.16736 24.1063 2.81506Z" fill="#2566AF"/>
</svg>
